<?xml version="1.0" standalone="no"?>
<!DOCTYPE svg PUBLIC "-//W3C//DTD SVG 20010904//EN"
 "http://www.w3.org/TR/2001/REC-SVG-20010904/DTD/svg10.dtd">
<svg version="1.0" xmlns="http://www.w3.org/2000/svg"
 width="275.000000pt" height="183.000000pt" viewBox="0 0 275.000000 183.000000"
 preserveAspectRatio="xMidYMid meet">
<metadata>
Created by potrace 1.10, written by Peter Selinger 2001-2011
</metadata>
<g transform="translate(0.000000,183.000000) scale(0.100000,-0.100000)"
fill="#000000" stroke="none">
<path d="M1210 1504 c-103 -27 -211 -88 -284 -160 -239 -239 -233 -639 13
-885 81 -81 206 -154 252 -147 23 3 24 7 27 89 l3 85 -63 0 c-81 -1 -124 23
-159 89 -14 27 -40 60 -57 75 -44 37 -42 54 5 47 30 -5 50 -20 94 -67 53 -58
57 -60 105 -60 59 0 63 3 91 57 l21 43 -32 0 c-64 0 -139 30 -182 74 -51 51
-67 103 -62 206 2 64 7 82 29 111 21 28 25 39 17 59 -10 27 -3 116 12 139 7
12 15 13 52 2 24 -7 61 -24 84 -37 39 -23 44 -24 118 -12 57 9 97 9 159 1 l83
-12 69 35 c38 19 78 34 89 32 26 -4 40 -56 33 -130 -4 -43 -1 -60 10 -69 44
-37 58 -162 27 -252 -29 -84 -129 -147 -236 -147 l-39 0 23 -31 c24 -31 24
-35 28 -321 0 -18 59 -6 114 22 86 44 160 104 212 174 96 128 129 231 128 401
0 102 -4 131 -26 192 -70 197 -229 341 -436 394 -90 23 -241 25 -322 3z m314
-44 c111 -28 190 -73 271 -155 177 -177 215 -437 98 -674 -57 -116 -196 -244
-290 -267 -23 -6 -23 -5 -23 77 0 46 -3 107 -6 136 l-7 51 58 18 c79 25 147
88 174 160 30 79 28 176 -4 240 -17 33 -25 66 -25 99 0 70 -16 121 -47 144
-30 24 -50 21 -139 -19 -53 -24 -68 -27 -105 -19 -57 11 -152 10 -209 0 -38
-8 -51 -6 -95 16 -27 14 -63 29 -78 34 -67 19 -108 -33 -112 -141 -1 -41 -10
-81 -23 -110 -35 -74 -30 -184 13 -283 l16 -39 -31 7 c-25 6 -37 2 -56 -16
-13 -12 -24 -29 -24 -36 0 -7 19 -38 43 -67 23 -30 51 -69 62 -87 29 -47 65
-70 131 -83 58 -12 59 -12 62 -49 4 -45 -8 -47 -76 -13 -276 140 -391 506
-250 794 66 134 214 250 366 286 85 21 215 19 306 -4z m-396 -813 c51 -16 59
-31 17 -35 -22 -2 -37 4 -55 23 -27 28 -22 30 38 12z"/>
</g>
</svg>
