<?xml version="1.0" standalone="no"?>
<!DOCTYPE svg PUBLIC "-//W3C//DTD SVG 20010904//EN"
 "http://www.w3.org/TR/2001/REC-SVG-20010904/DTD/svg10.dtd">
<svg version="1.0" xmlns="http://www.w3.org/2000/svg"
 width="148.000000pt" height="148.000000pt" viewBox="0 0 148.000000 148.000000"
 preserveAspectRatio="xMidYMid meet">
<metadata>
Created by potrace 1.10, written by Peter Selinger 2001-2011
</metadata>
<g transform="translate(0.000000,148.000000) scale(0.100000,-0.100000)"
fill="#000000" stroke="none">
<path d="M245 1270 c6 -36 68 -725 81 -888 4 -55 11 -95 18 -97 152 -44 385
-107 396 -107 16 1 401 109 404 114 2 2 22 219 45 483 24 264 45 491 48 505
l5 25 -502 0 -501 0 6 -35z m951 -82 c-3 -51 -10 -136 -16 -188 -5 -52 -14
-151 -20 -220 -6 -69 -15 -172 -20 -230 -6 -58 -13 -135 -16 -171 l-5 -67
-132 -36 c-73 -20 -141 -40 -152 -45 -60 -25 -104 -28 -162 -10 -32 10 -115
35 -184 55 l-126 36 -6 61 c-4 34 -13 132 -22 217 -8 85 -20 216 -25 291 -6
75 -12 145 -14 155 -2 11 -7 69 -11 131 l-7 112 462 1 463 0 -7 -92z"/>
<path d="M853 1223 c54 -2 139 -2 190 0 51 1 7 3 -98 3 -104 0 -146 -2 -92 -3z"/>
<path d="M602 1103 c-20 -17 -21 -31 -24 -250 -2 -127 -6 -234 -10 -238 -4 -4
-39 0 -78 10 -68 17 -72 17 -90 0 -28 -25 -28 -115 -1 -139 20 -18 247 -86
287 -86 13 0 26 6 31 13 5 7 10 -14 14 -53 3 -36 6 122 6 350 0 228 -1 407 -4
397 -4 -15 -6 -16 -26 -2 -29 20 -80 19 -105 -2z m103 -348 c0 -184 -2 -335
-5 -335 -3 0 -68 18 -145 39 l-140 38 -5 62 c-3 33 -4 61 -2 61 2 0 43 -11 92
-25 49 -14 91 -25 94 -25 4 0 6 117 6 260 l0 260 53 0 52 0 0 -335z"/>
<path d="M873 1113 c-158 -6 -106 -23 68 -23 l160 0 -3 -62 -3 -63 -107 3
-108 4 0 -86 0 -86 28 0 c15 0 58 5 96 10 38 6 70 9 72 7 2 -1 -2 -76 -9 -166
l-12 -163 -134 -34 c-73 -19 -135 -34 -137 -34 -2 0 -4 27 -4 60 l0 59 53 15
c28 8 71 20 93 25 39 10 42 14 47 53 3 24 4 45 1 47 -4 5 -126 -14 -171 -25
l-23 -6 0 215 c0 133 -4 218 -10 222 -7 4 -10 -68 -10 -208 0 -256 -6 -244
113 -238 59 2 78 0 75 -9 -4 -13 -92 -50 -119 -50 -9 0 -28 -9 -43 -21 -22
-18 -26 -28 -26 -75 0 -87 12 -93 124 -65 148 37 162 42 176 64 7 12 19 86 26
170 17 193 18 191 -93 181 l-83 -6 0 56 0 56 89 0 89 0 16 34 c23 49 21 104
-6 127 -16 14 -35 18 -77 17 -31 -1 -98 -4 -148 -5z"/>
<path d="M1133 980 c0 -36 2 -50 4 -32 2 17 2 47 0 65 -2 17 -4 3 -4 -33z"/>
<path d="M955 310 c-33 -10 -53 -19 -45 -19 8 0 42 8 75 18 33 11 53 19 45 19
-8 0 -42 -8 -75 -18z"/>
</g>
</svg>
