<?xml version="1.0" standalone="no"?>
<!DOCTYPE svg PUBLIC "-//W3C//DTD SVG 20010904//EN"
 "http://www.w3.org/TR/2001/REC-SVG-20010904/DTD/svg10.dtd">
<svg version="1.0" xmlns="http://www.w3.org/2000/svg"
 width="225.000000pt" height="225.000000pt" viewBox="0 0 225.000000 225.000000"
 preserveAspectRatio="xMidYMid meet">
<metadata>
Created by potrace 1.10, written by Peter Selinger 2001-2011
</metadata>
<g transform="translate(0.000000,225.000000) scale(0.100000,-0.100000)"
fill="#000000" stroke="none">
<path d="M195 2157 c-12 -15 -15 -57 -3 -57 4 0 8 -11 8 -25 0 -14 -4 -25 -10
-25 -5 0 -7 -7 -3 -15 10 -29 17 -4 18 66 0 38 0 69 0 69 0 -1 -4 -6 -10 -13z"/>
<path d="M2195 2157 c-12 -15 -15 -57 -3 -57 4 0 8 -11 8 -25 0 -14 -4 -25 -9
-25 -4 0 -6 -11 -3 -25 10 -53 17 -30 17 56 0 49 0 89 0 89 0 -1 -4 -6 -10
-13z"/>
<path d="M95 2145 c-3 -8 -7 -22 -10 -30 -2 -8 0 -15 5 -15 6 0 10 -11 10 -25
0 -14 -4 -25 -9 -25 -10 0 -2 -48 9 -55 5 -3 6 3 3 14 -2 10 0 35 5 55 6 21 7
36 1 36 -14 0 -11 48 4 53 9 4 9 6 -1 6 -7 1 -15 -6 -17 -14z"/>
<path d="M295 2152 c-14 -10 -12 -46 3 -55 8 -5 16 -6 19 -3 4 3 1 6 -5 6 -16
0 -15 47 1 53 6 3 8 6 2 6 -5 0 -14 -3 -20 -7z"/>
<path d="M495 2152 c-14 -10 -12 -46 3 -55 8 -5 16 -6 19 -3 4 3 1 6 -5 6 -16
0 -15 47 1 53 6 3 8 6 2 6 -5 0 -14 -3 -20 -7z"/>
<path d="M695 2152 c-14 -10 -12 -46 3 -55 8 -5 16 -6 19 -3 4 3 1 6 -5 6 -16
0 -15 47 1 53 6 3 8 6 2 6 -5 0 -14 -3 -20 -7z"/>
<path d="M895 2152 c-14 -10 -12 -46 3 -55 8 -5 16 -6 19 -3 4 3 1 6 -5 6 -16
0 -15 47 1 53 6 3 8 6 2 6 -5 0 -14 -3 -20 -7z"/>
<path d="M1095 2152 c-14 -10 -12 -46 3 -55 8 -5 16 -6 19 -3 4 3 1 6 -5 6
-16 0 -15 47 1 53 6 3 8 6 2 6 -5 0 -14 -3 -20 -7z"/>
<path d="M1295 2152 c-14 -10 -12 -46 3 -55 8 -5 16 -6 19 -3 4 3 1 6 -5 6
-16 0 -15 47 1 53 6 3 8 6 2 6 -5 0 -14 -3 -20 -7z"/>
<path d="M1495 2152 c-14 -10 -12 -46 3 -55 8 -5 16 -6 19 -3 4 3 1 6 -5 6
-16 0 -15 47 1 53 6 3 8 6 2 6 -5 0 -14 -3 -20 -7z"/>
<path d="M1695 2152 c-14 -10 -12 -46 3 -55 8 -5 16 -6 19 -3 4 3 1 6 -5 6
-16 0 -15 47 1 53 6 3 8 6 2 6 -5 0 -14 -3 -20 -7z"/>
<path d="M1895 2152 c-12 -9 -15 -52 -3 -52 4 0 8 -11 8 -25 0 -14 -4 -25 -9
-25 -10 0 -2 -48 9 -55 5 -3 6 3 3 14 -2 10 0 35 5 55 6 21 7 36 1 36 -14 0
-11 48 4 53 6 3 8 6 2 6 -5 0 -14 -3 -20 -7z"/>
<path d="M2095 2152 c-12 -9 -15 -52 -3 -52 4 0 8 -11 8 -25 0 -14 -3 -25 -7
-25 -13 0 -9 -49 3 -54 7 -3 10 3 7 13 -3 10 0 35 5 55 6 21 7 36 1 36 -14 0
-11 48 4 53 6 3 8 6 2 6 -5 0 -14 -3 -20 -7z"/>
<path d="M440 1954 c-64 -22 -124 -84 -144 -148 -15 -46 -16 -124 -14 -701 3
-644 3 -650 25 -690 25 -47 64 -85 113 -111 33 -18 70 -19 705 -19 667 0 670
0 710 22 47 25 85 64 111 113 18 33 19 70 19 705 0 635 -1 672 -19 705 -26 49
-64 88 -111 113 -40 22 -45 22 -695 24 -571 2 -661 0 -700 -13z m1373 -32 c47
-20 103 -86 116 -136 16 -66 15 -1274 -1 -1330 -18 -57 -81 -118 -141 -134
-35 -9 -203 -12 -665 -12 -682 0 -680 0 -743 62 -68 68 -64 23 -64 753 0 547
2 665 14 690 8 17 14 33 13 38 -1 4 1 6 5 5 5 -2 18 7 30 19 12 12 19 24 17
27 -2 3 -1 4 3 1 3 -3 12 0 19 5 28 24 131 28 734 26 483 -1 642 -4 663 -14z"/>
<path d="M620 1704 c-81 -33 -113 -155 -59 -221 64 -80 166 -82 232 -4 81 97
7 245 -122 240 -9 0 -32 -7 -51 -15z m144 -53 c26 -27 31 -39 31 -81 0 -43 -5
-54 -33 -82 -28 -28 -39 -33 -82 -33 -42 0 -54 5 -80 30 -39 39 -48 90 -25
138 34 72 130 86 189 28z"/>
<path d="M573 1381 c-42 -19 -44 -33 -41 -431 3 -349 4 -381 21 -397 15 -15
35 -18 128 -18 162 0 149 -38 149 429 -1 317 -3 384 -15 400 -12 16 -30 20
-117 23 -57 1 -113 -1 -125 -6z m227 -421 l0 -400 -120 0 -120 0 0 400 0 400
120 0 120 0 0 -400z"/>
<path d="M955 1383 c-46 -12 -45 -5 -45 -425 0 -315 3 -399 13 -395 9 3 12 92
12 400 l0 397 120 0 120 0 -3 -62 -4 -63 41 47 c105 119 326 100 418 -36 52
-77 56 -99 62 -406 l6 -285 -122 3 -123 3 0 242 c0 210 -2 247 -18 277 -51
102 -198 107 -245 7 -14 -30 -17 -72 -17 -281 l0 -246 -120 0 c-115 0 -155
-11 -89 -24 41 -8 148 -8 188 0 17 4 36 16 42 26 7 13 11 106 11 246 -1 280 7
307 96 319 35 5 44 1 78 -30 l39 -35 5 -244 c3 -134 9 -250 13 -259 11 -23 48
-28 161 -26 61 2 100 7 108 15 10 10 13 80 13 300 -1 275 -2 289 -24 345 -28
72 -90 139 -156 169 -74 33 -211 33 -278 -2 l-49 -24 -18 24 c-17 22 -25 24
-117 26 -54 2 -107 0 -118 -3z"/>
<path d="M2092 1938 c-5 -18 -5 -34 0 -36 4 -2 8 -16 9 -30 l1 -27 7 25 c4 14
3 28 -2 31 -6 4 -7 21 -4 38 9 41 0 40 -11 -1z"/>
<path d="M2188 1902 c10 -7 12 -22 7 -54 -4 -25 -3 -48 2 -51 4 -3 8 20 8 51
0 41 -4 56 -15 59 -12 4 -12 3 -2 -5z"/>
<path d="M95 1757 c-12 -15 -15 -57 -3 -57 4 0 8 -8 8 -17 0 -15 2 -16 10 -3
6 9 5 17 -2 21 -6 4 -8 20 -5 38 7 34 7 36 -8 18z"/>
<path d="M2095 1757 c-12 -15 -15 -57 -3 -57 4 0 8 -8 8 -17 0 -15 2 -16 10
-3 6 9 5 17 -2 21 -6 4 -8 20 -5 38 7 34 7 36 -8 18z"/>
<path d="M2195 1757 c-12 -15 -15 -57 -3 -57 4 0 8 -11 8 -25 0 -14 -4 -25 -9
-25 -4 0 -6 -11 -3 -25 10 -53 17 -30 17 56 0 49 0 89 0 89 0 -1 -4 -6 -10
-13z"/>
<path d="M2188 1502 c10 -7 12 -22 7 -54 -4 -25 -3 -48 2 -51 4 -3 8 20 8 51
0 41 -4 56 -15 59 -12 4 -12 3 -2 -5z"/>
<path d="M2195 1357 c-12 -15 -15 -57 -3 -57 4 0 8 -11 8 -25 0 -14 -4 -25 -9
-25 -4 0 -6 -11 -3 -25 10 -53 17 -30 17 56 0 49 0 89 0 89 0 -1 -4 -6 -10
-13z"/>
<path d="M95 1352 c-12 -9 -15 -52 -3 -52 4 0 8 -11 8 -25 0 -14 -4 -25 -9
-25 -10 0 -2 -48 9 -55 5 -3 6 3 3 14 -2 10 0 35 5 55 6 21 7 36 1 36 -14 0
-11 48 4 53 6 3 8 6 2 6 -5 0 -14 -3 -20 -7z"/>
<path d="M2188 1102 c10 -7 12 -22 7 -54 -4 -25 -3 -48 2 -51 4 -3 8 20 8 51
0 41 -4 56 -15 59 -12 4 -12 3 -2 -5z"/>
<path d="M2195 957 c-12 -15 -15 -57 -3 -57 4 0 8 -11 8 -25 0 -14 -4 -25 -9
-25 -4 0 -6 -11 -3 -25 10 -53 17 -30 17 56 0 49 0 89 0 89 0 -1 -4 -6 -10
-13z"/>
<path d="M95 952 c-12 -9 -15 -52 -3 -52 4 0 8 -11 8 -25 0 -14 -4 -25 -9 -25
-10 0 -2 -48 9 -55 5 -3 6 3 3 14 -2 10 0 35 5 55 6 21 7 36 1 36 -14 0 -11
48 4 53 6 3 8 6 2 6 -5 0 -14 -3 -20 -7z"/>
<path d="M145 895 c-3 -8 -7 -21 -9 -29 -3 -8 1 -17 8 -19 9 -4 11 4 8 25 -4
29 -3 30 26 26 17 -2 29 -1 26 4 -9 14 -54 9 -59 -7z"/>
<path d="M2188 702 c10 -7 12 -22 7 -54 -4 -25 -3 -48 2 -51 4 -3 8 20 8 51 0
41 -4 56 -15 59 -12 4 -12 3 -2 -5z"/>
<path d="M2095 557 c-12 -15 -15 -57 -3 -57 4 0 8 -8 8 -17 0 -15 2 -16 10 -3
6 9 5 17 -2 21 -6 4 -8 20 -5 38 7 34 7 36 -8 18z"/>
<path d="M2195 557 c-12 -15 -15 -57 -3 -57 4 0 8 -11 8 -25 0 -14 -4 -25 -9
-25 -4 0 -6 -11 -3 -25 10 -53 17 -30 17 56 0 49 0 89 0 89 0 -1 -4 -6 -10
-13z"/>
<path d="M95 552 c-12 -9 -15 -52 -3 -52 4 0 8 -11 8 -25 0 -14 -3 -25 -7 -25
-13 0 -9 -49 3 -54 7 -3 10 3 7 13 -3 10 0 35 5 55 6 21 7 36 1 36 -14 0 -11
48 4 53 6 3 8 6 2 6 -5 0 -14 -3 -20 -7z"/>
<path d="M92 338 c-5 -18 -5 -34 0 -36 11 -5 10 -52 -1 -52 -10 0 -2 -48 9
-55 5 -3 6 3 3 14 -2 10 0 35 5 55 7 25 7 36 0 36 -7 0 -8 14 -5 35 7 44 0 46
-11 3z"/>
<path d="M2092 338 c-5 -18 -5 -34 0 -36 11 -5 10 -52 -1 -52 -10 0 -2 -48 9
-55 5 -3 6 3 3 14 -2 10 0 35 5 55 7 25 7 36 0 36 -7 0 -8 14 -5 35 7 44 0 46
-11 3z"/>
<path d="M188 302 c10 -7 12 -22 7 -54 -4 -25 -3 -48 2 -51 4 -3 8 20 8 51 0
41 -4 56 -15 59 -12 4 -12 3 -2 -5z"/>
<path d="M2188 302 c10 -7 12 -22 7 -54 -4 -25 -3 -48 2 -51 4 -3 8 20 8 51 0
41 -4 56 -15 59 -12 4 -12 3 -2 -5z"/>
<path d="M95 157 c-21 -25 -8 -67 20 -67 6 0 4 4 -4 9 -9 6 -12 19 -8 40 7 34
7 36 -8 18z"/>
<path d="M2095 157 c-21 -25 -8 -67 20 -67 6 0 4 4 -4 9 -9 6 -12 19 -8 40 7
34 7 36 -8 18z"/>
<path d="M295 152 c-14 -10 -12 -46 3 -55 8 -5 16 -6 19 -3 4 3 1 6 -5 6 -16
0 -15 47 1 53 6 3 8 6 2 6 -5 0 -14 -3 -20 -7z"/>
<path d="M1895 152 c-14 -10 -12 -46 3 -55 8 -5 16 -6 19 -3 4 3 1 6 -5 6 -16
0 -15 47 1 53 6 3 8 6 2 6 -5 0 -14 -3 -20 -7z"/>
</g>
</svg>
