<?xml version="1.0" standalone="no"?>
<!DOCTYPE svg PUBLIC "-//W3C//DTD SVG 20010904//EN"
 "http://www.w3.org/TR/2001/REC-SVG-20010904/DTD/svg10.dtd">
<svg version="1.0" xmlns="http://www.w3.org/2000/svg"
 width="172.000000pt" height="148.000000pt" viewBox="0 0 172.000000 148.000000"
 preserveAspectRatio="xMidYMid meet">
<metadata>
Created by potrace 1.10, written by Peter Selinger 2001-2011
</metadata>
<g transform="translate(0.000000,148.000000) scale(0.100000,-0.100000)"
fill="#000000" stroke="none">
<path d="M645 1471 c-6 -5 -28 -14 -50 -21 -81 -26 -179 -92 -271 -184 -76
-77 -99 -107 -138 -186 -64 -131 -80 -200 -80 -340 0 -89 5 -133 22 -194 67
-233 250 -435 470 -517 75 -28 83 -29 262 -29 169 0 191 2 244 23 34 13 68 34
79 49 20 26 20 27 0 65 -33 62 -392 585 -424 618 -24 24 -32 28 -47 19 -33
-21 -42 -56 -42 -177 0 -76 -4 -116 -10 -112 -13 8 -14 442 0 450 14 9 25 -6
300 -412 140 -207 267 -386 282 -396 26 -20 27 -20 62 2 19 12 68 57 109 101
56 60 86 102 120 172 66 136 81 201 80 343 0 106 -4 131 -30 212 -42 127 -91
209 -182 305 -81 85 -194 163 -276 188 -22 7 -44 16 -49 21 -13 12 -419 12
-431 0z m438 -50 c223 -76 385 -239 459 -461 29 -87 32 -106 32 -220 -1 -113
-4 -134 -32 -220 -39 -118 -110 -228 -199 -310 -36 -33 -71 -60 -77 -60 -6 1
-47 56 -92 123 -116 177 -411 614 -451 670 -37 51 -63 59 -95 30 -17 -15 -18
-37 -18 -269 0 -273 2 -284 54 -284 43 0 48 19 47 187 -2 135 0 156 12 143 8
-8 99 -141 202 -295 104 -154 201 -298 217 -319 16 -22 25 -43 21 -47 -5 -4
-46 -20 -93 -35 -74 -24 -101 -28 -210 -28 -111 -1 -134 2 -210 28 -231 77
-398 242 -472 466 -29 86 -32 106 -32 220 0 114 3 134 32 220 71 216 235 384
444 456 106 37 151 43 268 39 83 -3 123 -10 193 -34z"/>
<path d="M1021 1046 c-8 -10 -12 -68 -12 -179 l0 -165 50 -77 51 -78 0 241 c0
205 -2 243 -16 256 -19 20 -58 21 -73 2z m49 -197 c0 -86 -4 -139 -10 -139 -6
0 -10 55 -10 146 0 94 4 143 10 139 6 -4 10 -63 10 -146z"/>
</g>
</svg>
