<?xml version="1.0" standalone="no"?>
<!DOCTYPE svg PUBLIC "-//W3C//DTD SVG 20010904//EN"
 "http://www.w3.org/TR/2001/REC-SVG-20010904/DTD/svg10.dtd">
<svg version="1.0" xmlns="http://www.w3.org/2000/svg"
 width="148.000000pt" height="148.000000pt" viewBox="0 0 148.000000 148.000000"
 preserveAspectRatio="xMidYMid meet">
<metadata>
Created by potrace 1.10, written by Peter Selinger 2001-2011
</metadata>
<g transform="translate(0.000000,148.000000) scale(0.100000,-0.100000)"
fill="#000000" stroke="none">
<path d="M295 1340 c-238 -139 -285 -174 -285 -210 0 -25 24 -16 37 13 9 19
79 65 207 136 85 48 262 155 279 169 18 16 23 32 10 32 -5 0 -116 -63 -248
-140z"/>
<path d="M506 1375 c-98 -58 -180 -105 -182 -105 -2 0 -28 -16 -58 -35 -30
-19 -58 -35 -61 -35 -17 0 -114 -71 -119 -88 -4 -10 -7 -178 -9 -373 -1 -264
1 -359 10 -375 15 -26 196 -131 240 -140 41 -8 99 20 121 60 15 27 17 74 20
384 3 341 4 352 22 352 19 0 20 -10 20 -373 0 -272 -3 -380 -12 -399 -21 -43
-73 -72 -133 -72 -44 -1 -69 7 -149 48 -112 56 -176 100 -176 120 0 8 -7 16
-15 20 -22 8 -19 -26 5 -57 23 -29 157 -110 238 -143 134 -55 246 -6 271 118
7 34 10 178 9 408 l-3 355 -55 0 -55 0 -5 -376 c-5 -406 -5 -402 -60 -414 -34
-7 -77 9 -182 71 l-78 46 0 368 0 368 103 60 c203 120 520 302 525 302 3 0
146 -82 319 -181 l313 -181 0 -368 0 -367 -313 -182 c-173 -99 -317 -181 -321
-181 -3 0 -43 23 -87 50 l-82 51 -41 -21 c-23 -11 -47 -20 -54 -20 -31 0 -17
-22 27 -45 62 -31 65 -31 45 0 -35 54 12 60 86 10 70 -47 141 -49 209 -6 51
31 169 100 365 212 72 41 145 88 163 106 l33 31 0 359 c-1 271 -4 364 -13 381
-8 13 -49 44 -93 69 -43 25 -92 53 -109 63 -26 15 -219 127 -315 182 -19 11
-44 27 -55 34 -11 8 -43 14 -75 14 -51 -1 -66 -8 -234 -105z"/>
<path d="M935 1460 c16 -18 61 -46 220 -139 33 -19 87 -51 120 -70 33 -20 73
-43 89 -51 28 -15 47 -32 85 -80 l20 -25 1 27 c0 17 -11 39 -27 57 -29 30
-491 301 -513 301 -9 0 -8 -6 5 -20z"/>
<path d="M795 1061 c-57 -15 -106 -44 -133 -79 -24 -31 -27 -45 -27 -108 0
-63 3 -76 25 -99 40 -43 89 -62 206 -80 178 -27 215 -37 237 -67 15 -20 17
-32 10 -54 -16 -47 -53 -66 -136 -72 -161 -10 -224 14 -251 93 -13 38 -16 40
-57 42 -58 3 -68 -7 -58 -60 4 -23 8 -45 9 -49 0 -5 16 -26 36 -48 56 -61 124
-83 264 -84 123 -1 168 9 231 51 52 34 79 89 79 158 0 124 -48 153 -337 200
-128 21 -143 29 -143 77 0 32 5 41 32 58 42 26 121 34 193 21 66 -12 99 -37
115 -87 11 -33 13 -34 67 -34 l56 0 -7 43 c-12 71 -49 122 -112 153 -49 24
-70 28 -163 30 -58 2 -119 0 -136 -5z m238 -36 c80 -21 137 -77 137 -135 0
-22 -24 -27 -39 -7 -81 100 -104 111 -231 112 -68 0 -92 -4 -120 -21 -40 -23
-60 -56 -60 -100 0 -57 48 -83 195 -105 237 -35 290 -68 282 -175 -6 -94 -65
-143 -196 -166 -139 -24 -295 21 -338 97 -30 53 -30 75 1 75 17 0 27 -9 36
-30 17 -41 62 -77 113 -91 52 -14 223 -7 257 11 74 38 94 120 41 169 -30 28
-127 55 -241 66 -119 11 -183 44 -201 104 -28 95 23 172 136 201 51 13 168 11
228 -5z"/>
<path d="M1443 352 c-25 -41 -65 -68 -303 -205 -102 -58 -191 -115 -198 -127
-7 -11 -8 -20 -4 -20 21 0 498 288 515 311 10 14 17 37 15 50 -4 23 -4 23 -25
-9z"/>
</g>
</svg>
