<?xml version="1.0" standalone="no"?>
<!DOCTYPE svg PUBLIC "-//W3C//DTD SVG 20010904//EN"
 "http://www.w3.org/TR/2001/REC-SVG-20010904/DTD/svg10.dtd">
<svg version="1.0" xmlns="http://www.w3.org/2000/svg"
 width="162.000000pt" height="148.000000pt" viewBox="0 0 162.000000 148.000000"
 preserveAspectRatio="xMidYMid meet">
<metadata>
Created by potrace 1.10, written by Peter Selinger 2001-2011
</metadata>
<g transform="translate(0.000000,148.000000) scale(0.100000,-0.100000)"
fill="#000000" stroke="none">
<path d="M467 1420 c-106 -34 -173 -185 -150 -338 l9 -59 -61 -27 c-76 -33
-166 -112 -194 -169 -59 -122 15 -256 188 -340 l66 -32 -8 -55 c-10 -70 5
-172 33 -234 28 -58 85 -103 144 -111 79 -12 225 41 297 108 18 17 20 17 38 0
58 -54 198 -113 266 -113 72 0 150 55 180 127 24 56 37 161 28 223 l-8 55 66
32 c171 83 246 216 190 338 -25 55 -120 138 -196 171 l-62 27 9 55 c11 71 -5
180 -36 241 -13 27 -40 58 -65 76 -38 27 -50 30 -114 29 -80 -1 -132 -20 -223
-80 l-55 -37 -44 32 c-96 69 -226 104 -298 81z m143 -79 c28 -11 73 -34 100
-51 l50 -32 -24 -19 c-14 -11 -47 -48 -75 -83 l-50 -63 -93 -18 c-51 -9 -101
-21 -110 -26 -37 -20 -32 165 7 241 20 39 70 70 112 70 18 0 55 -9 83 -19z
m548 -1 c50 -31 75 -96 76 -197 1 -45 -1 -84 -4 -87 -3 -2 -54 5 -113 16
l-108 22 -50 63 c-28 34 -61 71 -75 82 l-24 19 39 27 c55 37 149 74 191 75 19
0 50 -9 68 -20z m-312 -85 c0 -28 -3 -30 -35 -30 -33 0 -36 2 -37 30 0 28 2
30 36 30 33 0 36 -2 36 -30z m17 -94 c26 -27 47 -52 47 -55 0 -3 -45 -6 -100
-6 -55 0 -100 3 -100 7 0 9 92 103 100 103 4 0 28 -22 53 -49z m-176 -38 c-4
-3 0 -14 9 -24 20 -22 11 -39 -22 -39 -13 0 -40 -15 -61 -34 l-38 -34 -18 25
c-22 28 -24 26 28 41 23 6 54 25 70 42 16 16 31 30 34 30 2 0 1 -3 -2 -7z
m357 -69 c42 -7 42 -8 19 -38 l-18 -24 -38 34 c-20 19 -48 34 -60 34 -33 0
-37 7 -24 40 l11 29 37 -34 c21 -19 54 -37 73 -41z m236 -44 c11 -27 11 -32
-6 -45 -26 -19 -27 -19 -44 18 -15 31 -14 34 5 49 24 19 29 17 45 -22z m-891
18 c17 -10 17 -13 2 -39 -18 -32 -33 -36 -50 -15 -9 10 -9 20 0 40 14 29 21
31 48 14z m627 -66 c24 -35 61 -99 84 -143 l41 -78 -32 -63 c-17 -35 -56 -100
-85 -145 l-54 -83 -160 0 -160 0 -54 83 c-29 45 -68 110 -85 145 l-31 62 30
60 c37 72 106 188 128 213 14 16 33 17 176 15 l160 -3 42 -63z m-485 16 c-12
-18 -36 -60 -53 -93 l-31 -60 -23 75 c-13 41 -22 75 -21 76 5 5 113 32 130 33
18 1 18 -1 -2 -31z m623 16 c33 -9 62 -17 63 -18 1 -1 -8 -35 -21 -76 l-23
-75 -31 60 c-17 33 -41 75 -53 93 -24 37 -21 38 65 16z m-809 -71 c4 -16 18
-62 33 -103 l27 -75 -34 -105 c-20 -58 -36 -106 -37 -108 -5 -8 -109 53 -145
85 -90 82 -93 158 -7 240 30 29 133 92 150 93 4 0 10 -12 13 -27z m996 2 c27
-14 68 -42 90 -62 93 -84 93 -162 0 -246 -36 -32 -140 -93 -145 -85 -1 2 -17
50 -37 108 l-34 105 27 75 c15 41 29 87 33 103 3 15 8 27 11 27 2 0 27 -11 55
-25z m-901 -105 c9 -6 19 -5 29 3 12 10 13 8 6 -13 -11 -34 -12 -100 -1 -129
7 -21 6 -23 -11 -19 -11 3 -28 1 -38 -4 -15 -9 -16 -7 -9 13 11 30 11 107 1
137 -9 23 -1 28 23 12z m764 -9 c-13 -34 -16 -91 -5 -122 13 -36 8 -47 -12
-30 -8 6 -22 9 -31 5 -20 -8 -20 -5 -1 40 14 32 14 40 0 72 -20 49 -20 49 20
50 29 0 35 -3 29 -15z m-725 -218 c17 -32 40 -73 52 -90 24 -38 21 -39 -67
-16 -50 13 -63 21 -59 33 4 8 13 41 22 73 9 31 18 57 19 57 2 0 17 -26 33 -57z
m738 -89 c-7 -4 -126 -34 -136 -34 -9 0 -6 11 8 33 12 17 36 59 53 92 l31 60
23 -75 c13 -41 22 -75 21 -76z m-817 -24 c5 -10 1 -21 -16 -33 -24 -18 -24
-18 -41 18 -16 34 -16 36 3 50 20 15 30 8 54 -35z m890 17 c0 -7 -18 -46 -25
-55 -6 -7 -45 19 -45 29 0 5 7 21 16 34 13 20 19 22 35 12 10 -6 19 -16 19
-20z m-210 -61 c0 -3 -13 -6 -28 -6 -18 0 -44 -13 -71 -36 -40 -35 -43 -36
-56 -18 -23 30 -18 41 23 48 23 3 49 17 66 35 l29 30 18 -24 c11 -13 19 -26
19 -29z m-463 14 c22 -19 45 -30 64 -30 26 0 30 -3 24 -17 -4 -10 -10 -26 -12
-35 -4 -15 -12 -11 -51 22 -30 27 -54 40 -73 40 -33 0 -36 6 -12 32 21 23 19
23 60 -12z m-73 -50 c56 -9 64 -13 101 -57 22 -26 56 -65 77 -85 l37 -36 -49
-32 c-177 -113 -286 -85 -320 84 -7 33 -9 81 -5 111 l6 53 46 -14 c26 -8 74
-18 107 -24z m687 -119 c-20 -107 -69 -161 -146 -161 -35 0 -117 33 -177 71
-49 32 -50 33 -30 47 12 8 46 44 77 82 l55 67 92 18 c51 9 100 21 108 26 24
13 36 -70 21 -150z m-321 92 c-1 -5 -23 -30 -50 -58 l-50 -50 -50 50 c-27 28
-49 53 -50 58 0 4 45 7 100 7 55 0 100 -3 100 -7z m-65 -148 c0 -28 -3 -30
-36 -30 -33 0 -35 2 -35 30 1 27 4 30 36 30 32 0 35 -2 35 -30z"/>
<path d="M733 860 c-87 -52 -83 -198 6 -245 98 -50 211 16 211 123 0 85 -56
142 -140 142 -27 0 -58 -8 -77 -20z m154 -45 c47 -54 40 -124 -16 -162 -43
-29 -79 -29 -122 0 -47 32 -61 85 -34 135 11 20 31 42 45 50 38 19 101 8 127
-23z"/>
</g>
</svg>
