<?xml version="1.0" standalone="no"?>
<!DOCTYPE svg PUBLIC "-//W3C//DTD SVG 20010904//EN"
 "http://www.w3.org/TR/2001/REC-SVG-20010904/DTD/svg10.dtd">
<svg version="1.0" xmlns="http://www.w3.org/2000/svg"
 width="151.000000pt" height="148.000000pt" viewBox="0 0 151.000000 148.000000"
 preserveAspectRatio="xMidYMid meet">
<metadata>
Created by potrace 1.10, written by Peter Selinger 2001-2011
</metadata>
<g transform="translate(0.000000,148.000000) scale(0.100000,-0.100000)"
fill="#000000" stroke="none">
<path d="M520 1429 c-135 -11 -216 -28 -285 -59 -76 -34 -107 -66 -133 -135
-37 -96 -44 -202 -40 -563 4 -305 7 -343 25 -398 28 -86 64 -129 138 -164 107
-51 213 -64 530 -64 320 0 425 13 532 65 74 36 107 75 136 161 19 58 21 92 25
403 5 450 -8 547 -86 636 -62 71 -166 102 -399 119 -156 11 -303 11 -443 -1z
m596 -29 c99 -15 158 -40 209 -88 81 -76 93 -120 105 -362 11 -225 -2 -594
-23 -662 -17 -55 -93 -142 -116 -133 -9 3 -12 3 -8 -1 10 -11 -42 -35 -98 -45
-27 -5 -84 -16 -125 -24 -85 -17 -93 -18 -65 -4 14 6 6 7 -25 2 -67 -10 -414
-12 -398 -1 8 5 3 6 -15 2 -35 -8 -159 5 -152 16 3 5 0 12 -6 16 -8 4 -9 3 -5
-4 10 -17 -33 -15 -104 5 -33 9 -57 20 -53 26 3 5 -4 6 -18 2 -17 -4 -20 -3
-10 3 10 7 10 11 1 17 -6 4 -14 4 -17 1 -13 -13 -74 69 -91 123 -15 49 -17
104 -17 451 0 357 2 400 18 448 10 28 23 50 28 47 5 -4 6 0 4 8 -6 13 47 77
64 77 5 0 11 6 14 14 8 21 103 53 193 65 43 6 93 13 109 15 57 8 531 -3 601
-14z"/>
<path d="M580 1381 c-16 -6 62 -9 210 -9 242 0 325 -6 373 -24 16 -6 31 -7 35
-2 4 5 6 8 4 7 -2 -1 -16 3 -30 8 -40 15 -78 18 -332 23 -129 3 -246 1 -260
-3z"/>
<path d="M373 1373 c-13 -2 -23 -9 -23 -14 0 -6 5 -7 12 -3 6 4 53 11 102 14
l91 7 -80 0 c-44 0 -90 -2 -102 -4z"/>
<path d="M1376 1168 c1 -31 5 -62 9 -68 4 -7 9 -147 12 -313 3 -166 7 -304 10
-307 2 -3 2 139 -1 315 -3 231 -9 335 -19 375 l-14 55 3 -57z"/>
<path d="M108 1046 c-7 -39 -4 -55 8 -44 3 3 4 23 2 44 l-3 39 -7 -39z"/>
<path d="M100 729 c0 -134 4 -250 9 -258 5 -7 7 95 5 240 -3 139 -7 255 -9
258 -3 2 -5 -106 -5 -240z"/>
<path d="M436 845 c-8 -8 -18 -15 -23 -15 -10 0 -10 -57 0 -86 9 -25 33 -34
97 -34 33 0 41 -3 30 -10 -13 -8 -12 -10 3 -10 16 0 17 -16 17 -189 0 -152 3
-192 14 -204 9 -9 38 -15 75 -16 83 -2 84 1 85 224 1 99 5 185 9 192 4 6 30
11 58 11 29 1 57 6 62 11 20 20 27 11 24 -31 -1 -24 3 -49 10 -56 7 -7 13 -22
13 -32 0 -25 59 -83 77 -76 8 3 11 2 8 -3 -3 -5 10 -15 29 -22 19 -7 32 -17
29 -22 -3 -5 4 -6 16 -2 11 3 22 3 22 -2 8 -52 7 -54 -25 -48 -30 7 -30 6 -11
-9 19 -15 17 -15 -20 -1 -22 8 -49 16 -60 18 -11 1 -24 5 -30 9 -14 8 -55 -9
-59 -24 -3 -7 -7 -26 -10 -43 -5 -23 -4 -27 5 -15 8 12 9 9 5 -12 -4 -16 -2
-28 3 -28 5 0 13 -9 16 -20 4 -11 10 -18 15 -15 5 3 11 1 15 -5 10 -16 161
-12 220 6 30 8 65 24 78 34 57 45 74 143 36 209 -14 24 -15 29 -4 16 11 -13
16 -14 13 -5 -3 8 -14 20 -26 26 -14 7 -18 14 -12 20 7 7 1 10 -17 10 -17 -1
-27 4 -25 12 1 6 -7 12 -17 12 -11 0 -26 7 -35 15 -8 9 -21 14 -28 13 -7 -2
-12 3 -10 10 1 6 -2 12 -8 12 -5 0 -10 -5 -10 -12 0 -6 -3 -8 -6 -5 -4 4 -1
14 7 23 12 15 11 16 -11 10 l-25 -6 25 12 c14 7 28 16 31 21 8 12 100 -3 93
-14 -3 -6 9 -3 28 4 18 8 32 19 31 26 -2 6 1 11 6 11 14 0 -5 80 -23 98 -22
22 -234 25 -259 3 -9 -7 -25 -11 -35 -9 -15 4 -18 0 -16 -19 1 -14 0 -22 -3
-19 -4 3 -12 -3 -20 -14 -15 -22 -33 -27 -33 -9 0 5 4 8 9 4 5 -3 13 0 17 6
11 18 14 60 4 54 -5 -3 -7 -12 -4 -19 10 -26 -13 -26 -24 0 -7 13 -23 29 -38
34 -14 6 -108 10 -209 10 -150 0 -186 -3 -199 -15z m806 -27 c4 -7 8 -33 8
-57 0 -40 -2 -43 -22 -36 -81 25 -109 28 -147 16 -43 -12 -59 -38 -42 -69 6
-11 44 -36 85 -57 84 -42 119 -74 135 -125 22 -73 -24 -159 -98 -180 -52 -14
-186 -12 -224 4 -31 12 -33 16 -31 60 1 26 4 50 7 53 3 3 26 -4 50 -16 84 -41
182 -20 175 37 -2 22 -17 34 -83 69 -106 55 -145 98 -145 158 0 115 81 170
239 161 53 -3 87 -10 93 -18z m-382 -33 l0 -45 -42 -2 c-24 -1 -56 -2 -73 -2
l-30 -1 -5 -215 -5 -215 -54 -3 c-37 -2 -57 1 -62 10 -5 7 -9 107 -9 221 l0
209 -62 -2 c-92 -3 -88 -5 -88 45 l0 45 215 0 215 0 0 -45z"/>
<path d="M1379 468 c-4 -16 -2 -28 3 -28 6 0 7 -28 4 -66 -3 -37 -2 -64 1 -60
10 10 20 126 12 126 -4 0 -9 12 -11 28 l-3 27 -6 -27z"/>
</g>
</svg>
