<?xml version="1.0" standalone="no"?>
<!DOCTYPE svg PUBLIC "-//W3C//DTD SVG 20010904//EN"
 "http://www.w3.org/TR/2001/REC-SVG-20010904/DTD/svg10.dtd">
<svg version="1.0" xmlns="http://www.w3.org/2000/svg"
 width="213.000000pt" height="148.000000pt" viewBox="0 0 213.000000 148.000000"
 preserveAspectRatio="xMidYMid meet">
<metadata>
Created by potrace 1.10, written by Peter Selinger 2001-2011
</metadata>
<g transform="translate(0.000000,148.000000) scale(0.100000,-0.100000)"
fill="#000000" stroke="none">
<path d="M270 1216 c0 -2 42 -75 94 -162 51 -88 162 -278 246 -424 84 -146
194 -335 243 -420 50 -85 97 -167 106 -182 9 -16 22 -28 29 -28 6 0 12 1 12 3
0 6 -84 158 -139 252 -29 50 -62 106 -73 125 -40 70 -103 177 -168 290 -37 63
-85 147 -107 185 -22 39 -72 126 -112 194 -39 69 -68 128 -64 132 12 11 262
14 272 3 5 -5 23 -36 41 -69 18 -33 61 -107 95 -165 80 -138 210 -363 272
-471 l49 -87 28 52 c15 28 71 125 124 216 52 91 138 239 190 330 127 221 122
212 137 206 8 -3 68 -6 135 -7 66 0 120 -4 120 -8 0 -8 -61 -115 -337 -591
-350 -607 -341 -590 -320 -590 12 0 26 23 152 240 216 375 388 673 471 814 52
87 94 160 94 162 0 2 -138 4 -307 4 l-308 0 -89 -160 c-48 -88 -89 -160 -91
-160 -2 0 -43 72 -91 160 l-89 160 -307 0 c-170 0 -308 -2 -308 -4z m1210 -41
c9 -11 8 -20 -9 -44 -12 -16 -21 -34 -21 -40 0 -6 -4 -11 -10 -11 -5 0 -10 -5
-10 -10 0 -6 -32 -65 -71 -133 -40 -67 -97 -167 -129 -222 -134 -236 -153
-265 -165 -265 -8 0 -33 35 -56 78 -23 42 -45 79 -48 82 -3 3 -12 16 -20 30
-22 37 -89 157 -123 220 -17 30 -38 66 -47 80 -39 56 -121 208 -121 224 0 14
15 16 105 16 l106 0 37 -60 c20 -33 53 -88 72 -122 19 -33 47 -74 62 -90 23
-25 30 -27 47 -18 23 12 69 81 127 187 56 104 53 102 158 106 50 1 94 4 97 5
4 1 12 -5 19 -13z"/>
</g>
</svg>
